<?xml version="1.0" encoding="UTF-8"?>
<svg id="Calque_1" data-name="Calque 1" xmlns="http://www.w3.org/2000/svg" viewBox="0 0 1254 1254">
  <defs>
    <style>
      .cls-1 {
        fill: #fff;
      }

      .cls-2 {
        fill: #e30613;
      }
    </style>
  </defs>
  <path class="cls-2" d="M0,1254V0h1254v1254H0ZM521.73,624.84l.11,46.63c.02,7.25-4.84,11.08-10.94,13.53l-213.77,85.86c-2.04.82-5.83-.56-7.12-1.61s-2.82-4.33-2.32-6.6l35.82-161.27,30.54-136.42c2.15-9.61,14.78-11.9,22.64-9.86l137.14,35.73c6.82,1.78,8.53,11.2,8.02,16.69-.14,4.14.05,8.36,2.46,10.98l88.63,32.9-.21-97.83c-.04-16.72-11.58-35.52-28.07-41.35l-231.15-81.72c-15.39-5.44-30.27-7.01-45.41-.4-21.31,8.94-35.44,28.57-37.69,51.99l-43.52,185.53-75.48,314.17c-3.34,13.89-2.39,26.72,7.98,36.65,8.71,8.34,23.47,12.91,36.08,7.46l308.95-133.51c8.82-3.81,18.6-6.37,27.35-1.27l70.66,41.18c1.76,1.03,6.08.16,7.51-.92,1.53-1.15,3.11-3.94,3.11-6.75v-224.65c-.01-4.73-3.13-6.32-7.02-7.32l-180.8-46.69c-3.77-.97-6.74-1.55-10.05.43-1.89,1.13-3.75,4.22-4.37,7.28l-22.96,112.83c-.62,3.07-.05,5.91,1.6,7.54s5.22,2.73,7.58,1.77l124.69-50.95ZM997.88,872.11c4.09,5.46,9.91,8.52,14.95,11.88l60.95,40.73c9.01,6.02,21.43.54,27.05-6.4,6.98-8.61,6.75-19.44,1.16-28.57l-41.39-67.68-94.28-153.29,36.57-.66c26.03-2.51,44.97-28.02,40.37-54.11l-13.26-57.49-45.33-183.39c-3.95-15.97-13.02-29.33-26.83-38.19s-29.93-12.51-45.16-7.22l-82.3,28.56-159.7,56.29c-18.79,6.62-27.97,27.38-27.97,46.32l.06,365.69c0,3.45,2.43,6.62,4.51,7.44,3.16,1.24,5.96.44,8.85-1.25l71.86-41.94c3.76-2.06,6.02-5.59,6.02-10.09l-.02-109.39h101.94c6.98,0,12.98,3.47,16.79,8.95l145.17,193.83Z"/>
  <path class="cls-1" d="M521.73,624.84l-124.69,50.95c-2.36.96-5.94-.15-7.58-1.77s-2.23-4.47-1.6-7.54l22.96-112.83c.62-3.06,2.48-6.15,4.37-7.28,3.3-1.98,6.28-1.4,10.05-.43l180.8,46.69c3.89,1,7,2.59,7,7.32v224.65c.01,2.81-1.57,5.6-3.09,6.75-1.43,1.08-5.75,1.95-7.51.92l-70.66-41.18c-8.75-5.1-18.53-2.54-27.35,1.27l-308.95,133.51c-12.61,5.45-27.37.88-36.08-7.46-10.37-9.93-11.31-22.76-7.98-36.65l75.48-314.17,43.52-185.53c2.25-23.42,16.38-43.05,37.69-51.99,15.14-6.61,30.01-5.04,45.41.4l231.15,81.72c16.49,5.83,28.03,24.63,28.07,41.35l.21,97.83-88.63-32.9c-2.41-2.62-2.61-6.84-2.46-10.98.51-5.5-1.2-14.92-8.02-16.69l-137.14-35.73c-7.85-2.05-20.49.25-22.64,9.86l-30.54,136.42-35.82,161.27c-.5,2.27,1.03,5.55,2.32,6.6s5.08,2.43,7.12,1.61l213.77-85.86c6.1-2.45,10.96-6.28,10.94-13.53l-.11-46.63Z"/>
  <path class="cls-1" d="M997.88,872.11l-145.17-193.83c-3.81-5.48-9.81-8.94-16.79-8.94h-101.94s.02,109.38.02,109.38c0,4.5-2.26,8.03-6.02,10.09l-71.86,41.94c-2.9,1.69-5.69,2.49-8.85,1.25-2.09-.82-4.51-3.99-4.51-7.44l-.06-365.69c0-18.93,9.18-39.7,27.97-46.32l159.7-56.29,82.3-28.56c15.24-5.29,31.99-1.22,45.16,7.22s22.89,22.22,26.83,38.19l45.33,183.39,13.26,57.49c4.6,26.09-14.33,51.6-40.37,54.11l-36.57.66,94.28,153.29,41.39,67.68c5.59,9.14,5.81,19.96-1.16,28.57-5.62,6.94-18.03,12.42-27.05,6.4l-60.95-40.73c-5.03-3.36-10.86-6.42-14.95-11.88ZM906.38,572.2c11.01-1.98,19.75-11.35,17.23-22.33l-18.97-82.75c-1.94-8.46-11.82-14.77-20.79-12.52l-139.63,35.19c-5.78,1.46-10.5,6.86-10.51,13.05l-.06,69.4,172.73-.03Z"/>
  <path class="cls-2" d="M906.38,572.2l-172.73.03.06-69.4c0-6.19,4.73-11.59,10.51-13.05l139.63-35.19c8.97-2.26,18.85,4.05,20.79,12.52l18.97,82.75c2.52,10.97-6.22,20.35-17.23,22.33Z"/>
</svg>